<mxfile host="Electron" agent="Mozilla/5.0 (Windows NT 10.0; Win64; x64) AppleWebKit/537.36 (KHTML, like Gecko) draw.io/24.7.17 Chrome/128.0.6613.36 Electron/32.0.1 Safari/537.36" version="24.7.17">
  <diagram name="Page-1" id="scQTHf89ZcC5F5KfDH3z">
    <mxGraphModel dx="690" dy="828" grid="1" gridSize="10" guides="1" tooltips="1" connect="1" arrows="1" fold="1" page="1" pageScale="1" pageWidth="827" pageHeight="1169" math="0" shadow="0">
      <root>
        <mxCell id="0" />
        <mxCell id="1" parent="0" />
        <mxCell id="akop46O1KzHLCnAjrqv7-28" value="" style="rounded=0;whiteSpace=wrap;html=1;" parent="1" vertex="1">
          <mxGeometry x="120" y="60" width="650" height="780" as="geometry" />
        </mxCell>
        <mxCell id="akop46O1KzHLCnAjrqv7-10" value="" style="rounded=0;whiteSpace=wrap;html=1;shadow=1;" parent="1" vertex="1">
          <mxGeometry x="230" y="290" width="400" height="480" as="geometry" />
        </mxCell>
        <mxCell id="akop46O1KzHLCnAjrqv7-11" value="&lt;font style=&quot;font-size: 20px;&quot;&gt;2&lt;/font&gt;" style="whiteSpace=wrap;html=1;aspect=fixed;strokeWidth=2;fillColor=#EEE4DA;strokeColor=#d6b656;" parent="1" vertex="1">
          <mxGeometry x="270" y="330" width="80" height="80" as="geometry" />
        </mxCell>
        <mxCell id="akop46O1KzHLCnAjrqv7-12" value="&lt;font style=&quot;font-size: 20px;&quot;&gt;8&lt;/font&gt;" style="whiteSpace=wrap;html=1;aspect=fixed;strokeWidth=2;fillColor=#F2B179;strokeColor=#d79b00;" parent="1" vertex="1">
          <mxGeometry x="430" y="330" width="80" height="80" as="geometry" />
        </mxCell>
        <mxCell id="akop46O1KzHLCnAjrqv7-13" value="&lt;font style=&quot;font-size: 20px;&quot;&gt;16&lt;/font&gt;" style="whiteSpace=wrap;html=1;aspect=fixed;strokeWidth=2;fillColor=#F59563;fontColor=#000000;strokeColor=#BD7000;" parent="1" vertex="1">
          <mxGeometry x="510" y="330" width="80" height="80" as="geometry" />
        </mxCell>
        <mxCell id="akop46O1KzHLCnAjrqv7-14" value="&lt;font color=&quot;#000000&quot; style=&quot;font-size: 20px;&quot;&gt;32&lt;/font&gt;" style="whiteSpace=wrap;html=1;aspect=fixed;strokeWidth=2;fillColor=#F67C5F;fontColor=#ffffff;strokeColor=#B20000;" parent="1" vertex="1">
          <mxGeometry x="270" y="440" width="80" height="80" as="geometry" />
        </mxCell>
        <mxCell id="akop46O1KzHLCnAjrqv7-15" value="&lt;font color=&quot;#000000&quot; style=&quot;font-size: 20px;&quot;&gt;64&lt;/font&gt;" style="whiteSpace=wrap;html=1;aspect=fixed;strokeWidth=2;fillColor=#F65E3B;fontColor=#ffffff;strokeColor=#B20000;" parent="1" vertex="1">
          <mxGeometry x="350" y="440" width="80" height="80" as="geometry" />
        </mxCell>
        <mxCell id="akop46O1KzHLCnAjrqv7-16" value="&lt;font color=&quot;#000000&quot; style=&quot;font-size: 20px;&quot;&gt;128&lt;/font&gt;" style="whiteSpace=wrap;html=1;aspect=fixed;strokeWidth=2;fillColor=#8C4E03;fontColor=#ffffff;strokeColor=#6D1F00;" parent="1" vertex="1">
          <mxGeometry x="430" y="440" width="80" height="80" as="geometry" />
        </mxCell>
        <mxCell id="akop46O1KzHLCnAjrqv7-17" value="&lt;font style=&quot;font-size: 20px;&quot;&gt;256&lt;/font&gt;" style="whiteSpace=wrap;html=1;aspect=fixed;strokeWidth=2;fillColor=#0FC2C0;" parent="1" vertex="1">
          <mxGeometry x="510" y="440" width="80" height="80" as="geometry" />
        </mxCell>
        <mxCell id="akop46O1KzHLCnAjrqv7-18" value="&lt;font color=&quot;#000000&quot; style=&quot;font-size: 20px;&quot;&gt;512&lt;/font&gt;" style="whiteSpace=wrap;html=1;aspect=fixed;strokeWidth=2;strokeColor=#314354;fillColor=#2A8C82;fontColor=#ffffff;" parent="1" vertex="1">
          <mxGeometry x="270" y="545" width="80" height="80" as="geometry" />
        </mxCell>
        <mxCell id="akop46O1KzHLCnAjrqv7-19" value="&lt;font style=&quot;font-size: 20px;&quot;&gt;1024&lt;/font&gt;" style="whiteSpace=wrap;html=1;aspect=fixed;strokeWidth=2;fillColor=#4CA4FF;" parent="1" vertex="1">
          <mxGeometry x="350" y="545" width="80" height="80" as="geometry" />
        </mxCell>
        <mxCell id="akop46O1KzHLCnAjrqv7-20" value="&lt;font style=&quot;font-size: 20px;&quot;&gt;2048&lt;/font&gt;" style="whiteSpace=wrap;html=1;aspect=fixed;strokeWidth=2;fillColor=#EDC22E;" parent="1" vertex="1">
          <mxGeometry x="430" y="545" width="80" height="80" as="geometry" />
        </mxCell>
        <mxCell id="akop46O1KzHLCnAjrqv7-21" value="&lt;font style=&quot;font-size: 20px;&quot;&gt;&amp;gt;2048&lt;/font&gt;" style="whiteSpace=wrap;html=1;aspect=fixed;strokeWidth=2;fillColor=#c454e3;" parent="1" vertex="1">
          <mxGeometry x="510" y="545" width="80" height="80" as="geometry" />
        </mxCell>
        <mxCell id="akop46O1KzHLCnAjrqv7-22" value="&lt;font style=&quot;font-size: 20px;&quot;&gt;4&lt;/font&gt;" style="whiteSpace=wrap;html=1;aspect=fixed;strokeWidth=2;fillColor=#EDE0C8;" parent="1" vertex="1">
          <mxGeometry x="350" y="330" width="80" height="80" as="geometry" />
        </mxCell>
        <mxCell id="akop46O1KzHLCnAjrqv7-23" value="&lt;font style=&quot;font-size: 20px;&quot;&gt;0&lt;/font&gt;" style="whiteSpace=wrap;html=1;aspect=fixed;strokeWidth=2;" parent="1" vertex="1">
          <mxGeometry x="270" y="650" width="80" height="80" as="geometry" />
        </mxCell>
        <mxCell id="akop46O1KzHLCnAjrqv7-24" value="&lt;font style=&quot;font-size: 20px;&quot;&gt;0&lt;/font&gt;" style="whiteSpace=wrap;html=1;aspect=fixed;strokeWidth=2;" parent="1" vertex="1">
          <mxGeometry x="350" y="650" width="80" height="80" as="geometry" />
        </mxCell>
        <mxCell id="akop46O1KzHLCnAjrqv7-25" value="&lt;font style=&quot;font-size: 20px;&quot;&gt;0&lt;/font&gt;" style="whiteSpace=wrap;html=1;aspect=fixed;strokeWidth=2;" parent="1" vertex="1">
          <mxGeometry x="430" y="650" width="80" height="80" as="geometry" />
        </mxCell>
        <mxCell id="akop46O1KzHLCnAjrqv7-26" value="&lt;font style=&quot;font-size: 20px;&quot;&gt;0&lt;/font&gt;" style="whiteSpace=wrap;html=1;aspect=fixed;strokeWidth=2;" parent="1" vertex="1">
          <mxGeometry x="510" y="650" width="80" height="80" as="geometry" />
        </mxCell>
        <mxCell id="akop46O1KzHLCnAjrqv7-29" value="&lt;font style=&quot;font-size: 17px;&quot;&gt;nouveau&lt;/font&gt;" style="rounded=0;whiteSpace=wrap;html=1;shadow=1;" parent="1" vertex="1">
          <mxGeometry x="510" y="220" width="120" height="60" as="geometry" />
        </mxCell>
        <mxCell id="akop46O1KzHLCnAjrqv7-30" value="&lt;font style=&quot;font-size: 16px;&quot;&gt;score:&lt;/font&gt;" style="rounded=0;whiteSpace=wrap;html=1;shadow=1;" parent="1" vertex="1">
          <mxGeometry x="230" y="220" width="130" height="60" as="geometry" />
        </mxCell>
        <mxCell id="akop46O1KzHLCnAjrqv7-31" value="&lt;font style=&quot;font-size: 26px;&quot;&gt;2048&lt;/font&gt;" style="rounded=0;whiteSpace=wrap;html=1;glass=0;shadow=1;gradientColor=none;fillStyle=solid;fillColor=#A680B8;dashed=1;dashPattern=1 4;strokeWidth=0;gradientDirection=radial;" parent="1" vertex="1">
          <mxGeometry x="120" y="100" width="650" height="60" as="geometry" />
        </mxCell>
        <mxCell id="PGdTUCse6PJ9HXW6icYj-1" style="edgeStyle=orthogonalEdgeStyle;rounded=0;orthogonalLoop=1;jettySize=auto;html=1;exitX=0.5;exitY=1;exitDx=0;exitDy=0;entryX=0.025;entryY=0.888;entryDx=0;entryDy=0;entryPerimeter=0;" edge="1" parent="1" source="akop46O1KzHLCnAjrqv7-13" target="akop46O1KzHLCnAjrqv7-13">
          <mxGeometry relative="1" as="geometry" />
        </mxCell>
      </root>
    </mxGraphModel>
  </diagram>
</mxfile>
